<svg width="1920" height="1080" viewBox="0 0 1920 1080" fill="none" xmlns="http://www.w3.org/2000/svg">
<g id="heart">
<g id="Group 1" filter="url(#filter0_f_18_258)">
<circle id="Ellipse 1" cx="29.0361" cy="47.0361" r="104.036" fill="#FF2D55"/>
<circle id="Ellipse 2" cx="237.108" cy="47.0361" r="104.036" fill="#FF2D55"/>
<rect id="Rectangle 3" x="8.229" y="160.813" width="258.01" height="185.184" transform="rotate(-45 8.229 160.813)" fill="#FF2D55"/>
<rect id="Rectangle 4" x="132.409" y="298" width="258.01" height="185.184" transform="rotate(-135 132.409 298)" fill="#FF2D55"/>
</g>
<g id="Group 2" filter="url(#filter1_f_18_258)">
<circle id="Ellipse 1_2" cx="341.036" cy="372.036" r="104.036" fill="#FF2D55"/>
<circle id="Ellipse 2_2" cx="549.108" cy="372.036" r="104.036" fill="#FF2D55"/>
<rect id="Rectangle 3_2" x="320.229" y="485.813" width="258.01" height="185.184" transform="rotate(-45 320.229 485.813)" fill="#FF2D55"/>
<rect id="Rectangle 4_2" x="444.409" y="623" width="258.01" height="185.184" transform="rotate(-135 444.409 623)" fill="#FF2D55"/>
</g>
<g id="Group 3" filter="url(#filter2_f_18_258)">
<circle id="Ellipse 1_3" cx="738.036" cy="623.036" r="104.036" fill="#FF2D55"/>
<circle id="Ellipse 2_3" cx="946.108" cy="623.036" r="104.036" fill="#FF2D55"/>
<rect id="Rectangle 3_3" x="717.229" y="736.813" width="258.01" height="185.184" transform="rotate(-45 717.229 736.813)" fill="#FF2D55"/>
<rect id="Rectangle 4_3" x="841.409" y="874" width="258.01" height="185.184" transform="rotate(-135 841.409 874)" fill="#FF2D55"/>
</g>
<g id="Group 4" filter="url(#filter3_f_18_258)">
<circle id="Ellipse 1_4" cx="1166.04" cy="862.036" r="104.036" fill="#FF2D55"/>
<circle id="Ellipse 2_4" cx="1374.11" cy="862.036" r="104.036" fill="#FF2D55"/>
<rect id="Rectangle 3_4" x="1145.23" y="975.813" width="258.01" height="185.184" transform="rotate(-45 1145.23 975.813)" fill="#FF2D55"/>
<rect id="Rectangle 4_4" x="1269.41" y="1113" width="258.01" height="185.184" transform="rotate(-135 1269.41 1113)" fill="#FF2D55"/>
</g>
<g id="Group 5" filter="url(#filter4_f_18_258)">
<circle id="Ellipse 1_5" cx="549.036" cy="17.0361" r="104.036" fill="#FF2D55"/>
<circle id="Ellipse 2_5" cx="757.108" cy="17.0361" r="104.036" fill="#FF2D55"/>
<rect id="Rectangle 3_5" x="528.229" y="130.813" width="258.01" height="185.184" transform="rotate(-45 528.229 130.813)" fill="#FF2D55"/>
<rect id="Rectangle 4_5" x="652.409" y="268" width="258.01" height="185.184" transform="rotate(-135 652.409 268)" fill="#FF2D55"/>
</g>
<g id="Group 6" filter="url(#filter5_f_18_258)">
<circle id="Ellipse 1_6" cx="965.036" cy="255.036" r="104.036" fill="#FF2D55"/>
<circle id="Ellipse 2_6" cx="1173.11" cy="255.036" r="104.036" fill="#FF2D55"/>
<rect id="Rectangle 3_6" x="944.229" y="368.813" width="258.01" height="185.184" transform="rotate(-45 944.229 368.813)" fill="#FF2D55"/>
<rect id="Rectangle 4_6" x="1068.41" y="506" width="258.01" height="185.184" transform="rotate(-135 1068.41 506)" fill="#FF2D55"/>
</g>
<g id="Group 7" filter="url(#filter6_f_18_258)">
<circle id="Ellipse 1_7" cx="1406.04" cy="463.036" r="104.036" fill="#FF2D55"/>
<circle id="Ellipse 2_7" cx="1614.11" cy="463.036" r="104.036" fill="#FF2D55"/>
<rect id="Rectangle 3_7" x="1385.23" y="576.813" width="258.01" height="185.184" transform="rotate(-45 1385.23 576.813)" fill="#FF2D55"/>
<rect id="Rectangle 4_7" x="1509.41" y="714" width="258.01" height="185.184" transform="rotate(-135 1509.41 714)" fill="#FF2D55"/>
</g>
<g id="Group 8" filter="url(#filter7_f_18_258)">
<circle id="Ellipse 1_8" cx="1744.04" cy="831.036" r="104.036" fill="#FF2D55"/>
<circle id="Ellipse 2_8" cx="1952.11" cy="831.036" r="104.036" fill="#FF2D55"/>
<rect id="Rectangle 3_8" x="1723.23" y="944.813" width="258.01" height="185.184" transform="rotate(-45 1723.23 944.813)" fill="#FF2D55"/>
<rect id="Rectangle 4_8" x="1847.41" y="1082" width="258.01" height="185.184" transform="rotate(-135 1847.41 1082)" fill="#FF2D55"/>
</g>
<g id="Group 9" filter="url(#filter8_f_18_258)">
<circle id="Ellipse 1_9" cx="1302.04" cy="-26.9639" r="104.036" fill="#FF2D55"/>
<circle id="Ellipse 2_9" cx="1510.11" cy="-26.9639" r="104.036" fill="#FF2D55"/>
<rect id="Rectangle 3_9" x="1281.23" y="86.8126" width="258.01" height="185.184" transform="rotate(-45 1281.23 86.8126)" fill="#FF2D55"/>
<rect id="Rectangle 4_9" x="1405.41" y="224" width="258.01" height="185.184" transform="rotate(-135 1405.41 224)" fill="#FF2D55"/>
</g>
<g id="Group 10" filter="url(#filter9_f_18_258)">
<circle id="Ellipse 1_10" cx="1769.04" cy="218.036" r="104.036" fill="#FF2D55"/>
<circle id="Ellipse 2_10" cx="1977.11" cy="218.036" r="104.036" fill="#FF2D55"/>
<rect id="Rectangle 3_10" x="1748.23" y="331.813" width="258.01" height="185.184" transform="rotate(-45 1748.23 331.813)" fill="#FF2D55"/>
<rect id="Rectangle 4_10" x="1872.41" y="469" width="258.01" height="185.184" transform="rotate(-135 1872.41 469)" fill="#FF2D55"/>
</g>
<g id="Group 11" filter="url(#filter10_f_18_258)">
<circle id="Ellipse 1_11" cx="8.03615" cy="757.036" r="104.036" fill="#FF2D55"/>
<circle id="Ellipse 2_11" cx="216.108" cy="757.036" r="104.036" fill="#FF2D55"/>
<rect id="Rectangle 3_11" x="-12.771" y="870.813" width="258.01" height="185.184" transform="rotate(-45 -12.771 870.813)" fill="#FF2D55"/>
<rect id="Rectangle 4_11" x="111.409" y="1008" width="258.01" height="185.184" transform="rotate(-135 111.409 1008)" fill="#FF2D55"/>
</g>
<g id="Group 12" filter="url(#filter11_f_18_258)">
<circle id="Ellipse 1_12" cx="471.036" cy="978.036" r="104.036" fill="#FF2D55"/>
<circle id="Ellipse 2_12" cx="679.108" cy="978.036" r="104.036" fill="#FF2D55"/>
<rect id="Rectangle 3_12" x="450.229" y="1091.81" width="258.01" height="185.184" transform="rotate(-45 450.229 1091.81)" fill="#FF2D55"/>
<rect id="Rectangle 4_12" x="574.409" y="1229" width="258.01" height="185.184" transform="rotate(-135 574.409 1229)" fill="#FF2D55"/>
</g>
</g>
<defs>
<filter id="filter0_f_18_258" x="-225" y="-207" width="716.145" height="655" filterUnits="userSpaceOnUse" color-interpolation-filters="sRGB">
<feFlood flood-opacity="0" result="BackgroundImageFix"/>
<feBlend mode="normal" in="SourceGraphic" in2="BackgroundImageFix" result="shape"/>
<feGaussianBlur stdDeviation="75" result="effect1_foregroundBlur_18_258"/>
</filter>
<filter id="filter1_f_18_258" x="87" y="118" width="716.145" height="655" filterUnits="userSpaceOnUse" color-interpolation-filters="sRGB">
<feFlood flood-opacity="0" result="BackgroundImageFix"/>
<feBlend mode="normal" in="SourceGraphic" in2="BackgroundImageFix" result="shape"/>
<feGaussianBlur stdDeviation="75" result="effect1_foregroundBlur_18_258"/>
</filter>
<filter id="filter2_f_18_258" x="484" y="369" width="716.145" height="655" filterUnits="userSpaceOnUse" color-interpolation-filters="sRGB">
<feFlood flood-opacity="0" result="BackgroundImageFix"/>
<feBlend mode="normal" in="SourceGraphic" in2="BackgroundImageFix" result="shape"/>
<feGaussianBlur stdDeviation="75" result="effect1_foregroundBlur_18_258"/>
</filter>
<filter id="filter3_f_18_258" x="912" y="608" width="716.145" height="655" filterUnits="userSpaceOnUse" color-interpolation-filters="sRGB">
<feFlood flood-opacity="0" result="BackgroundImageFix"/>
<feBlend mode="normal" in="SourceGraphic" in2="BackgroundImageFix" result="shape"/>
<feGaussianBlur stdDeviation="75" result="effect1_foregroundBlur_18_258"/>
</filter>
<filter id="filter4_f_18_258" x="295" y="-237" width="716.145" height="655" filterUnits="userSpaceOnUse" color-interpolation-filters="sRGB">
<feFlood flood-opacity="0" result="BackgroundImageFix"/>
<feBlend mode="normal" in="SourceGraphic" in2="BackgroundImageFix" result="shape"/>
<feGaussianBlur stdDeviation="75" result="effect1_foregroundBlur_18_258"/>
</filter>
<filter id="filter5_f_18_258" x="711" y="1" width="716.145" height="655" filterUnits="userSpaceOnUse" color-interpolation-filters="sRGB">
<feFlood flood-opacity="0" result="BackgroundImageFix"/>
<feBlend mode="normal" in="SourceGraphic" in2="BackgroundImageFix" result="shape"/>
<feGaussianBlur stdDeviation="75" result="effect1_foregroundBlur_18_258"/>
</filter>
<filter id="filter6_f_18_258" x="1152" y="209" width="716.145" height="655" filterUnits="userSpaceOnUse" color-interpolation-filters="sRGB">
<feFlood flood-opacity="0" result="BackgroundImageFix"/>
<feBlend mode="normal" in="SourceGraphic" in2="BackgroundImageFix" result="shape"/>
<feGaussianBlur stdDeviation="75" result="effect1_foregroundBlur_18_258"/>
</filter>
<filter id="filter7_f_18_258" x="1490" y="577" width="716.145" height="655" filterUnits="userSpaceOnUse" color-interpolation-filters="sRGB">
<feFlood flood-opacity="0" result="BackgroundImageFix"/>
<feBlend mode="normal" in="SourceGraphic" in2="BackgroundImageFix" result="shape"/>
<feGaussianBlur stdDeviation="75" result="effect1_foregroundBlur_18_258"/>
</filter>
<filter id="filter8_f_18_258" x="1048" y="-281" width="716.145" height="655" filterUnits="userSpaceOnUse" color-interpolation-filters="sRGB">
<feFlood flood-opacity="0" result="BackgroundImageFix"/>
<feBlend mode="normal" in="SourceGraphic" in2="BackgroundImageFix" result="shape"/>
<feGaussianBlur stdDeviation="75" result="effect1_foregroundBlur_18_258"/>
</filter>
<filter id="filter9_f_18_258" x="1515" y="-36" width="716.145" height="655" filterUnits="userSpaceOnUse" color-interpolation-filters="sRGB">
<feFlood flood-opacity="0" result="BackgroundImageFix"/>
<feBlend mode="normal" in="SourceGraphic" in2="BackgroundImageFix" result="shape"/>
<feGaussianBlur stdDeviation="75" result="effect1_foregroundBlur_18_258"/>
</filter>
<filter id="filter10_f_18_258" x="-246" y="503" width="716.145" height="655" filterUnits="userSpaceOnUse" color-interpolation-filters="sRGB">
<feFlood flood-opacity="0" result="BackgroundImageFix"/>
<feBlend mode="normal" in="SourceGraphic" in2="BackgroundImageFix" result="shape"/>
<feGaussianBlur stdDeviation="75" result="effect1_foregroundBlur_18_258"/>
</filter>
<filter id="filter11_f_18_258" x="217" y="724" width="716.145" height="655" filterUnits="userSpaceOnUse" color-interpolation-filters="sRGB">
<feFlood flood-opacity="0" result="BackgroundImageFix"/>
<feBlend mode="normal" in="SourceGraphic" in2="BackgroundImageFix" result="shape"/>
<feGaussianBlur stdDeviation="75" result="effect1_foregroundBlur_18_258"/>
</filter>
</defs>
</svg>
