<svg width="789" height="293" viewBox="0 0 789 293" fill="none" xmlns="http://www.w3.org/2000/svg">
<g filter="url(#filter0_d_33_87)">
<rect x="443.519" y="5" width="55" height="64" rx="10" transform="rotate(9 443.519 5)" fill="#FEFAFC"/>
<path d="M454.894 21.6248L461.307 22.6404L457.728 45.2337L475.057 24.8182L481.886 25.8998L476.511 59.8362L470.099 58.8206L473.607 36.667L456.371 56.6464L449.519 55.5611L454.894 21.6248ZM473.826 15.9619L476.997 16.4642C476.479 18.5337 475.477 20.0677 473.99 21.0661C472.521 22.0515 470.76 22.3817 468.708 22.0566C466.655 21.7315 465.075 20.8722 463.967 19.4785C462.876 18.0719 462.405 16.3045 462.552 14.1763L465.724 14.6786C465.658 15.7915 465.912 16.6859 466.485 17.362C467.061 18.0227 467.981 18.4533 469.247 18.6537C470.512 18.8541 471.521 18.7291 472.272 18.2786C473.026 17.8127 473.544 17.0405 473.826 15.9619Z" fill="#331832"/>
</g>
<g filter="url(#filter1_d_33_87)">
<rect x="373.209" y="25.4382" width="34" height="64" rx="10" transform="rotate(-10 373.209 25.4382)" fill="#FEFAFC"/>
<path d="M395.113 71.3319L389.146 37.4946L395.978 36.2899L401.945 70.1273L395.113 71.3319Z" fill="#331832"/>
</g>
<g filter="url(#filter2_d_33_87)">
<rect x="287.507" y="13.2294" width="60" height="64" rx="10" transform="rotate(-5 287.507 13.2294)" fill="#FEFAFC"/>
<path d="M305.133 60.8745L302.138 26.6459L312.482 25.741L320.735 48.5459L324.833 24.6604L335.2 23.7534L338.194 57.982L331.773 58.5438L329.416 31.5998L324.979 59.1382L318.325 59.7204L309.196 33.3688L311.554 60.3128L305.133 60.8745Z" fill="#331832"/>
</g>
<g filter="url(#filter3_d_33_87)">
<g clip-path="url(#clip0_33_87)">
<rect x="568.047" y="180.466" width="55" height="64" rx="10" transform="rotate(25 568.047 180.466)" fill="#FEFAFC"/>
<path d="M574.442 199.602L597.723 210.458L595.286 215.683L578.293 207.759L574.925 214.981L583.337 218.904C585.659 219.987 587.453 221.168 588.718 222.448C589.983 223.727 590.798 225.383 591.161 227.414C591.538 229.452 591.248 231.497 590.29 233.551C589.306 235.661 587.919 237.212 586.129 238.205C584.339 239.197 582.614 239.643 580.954 239.541C579.309 239.447 577.197 238.798 574.62 237.596L559.921 230.742L574.442 199.602ZM568.645 228.449L574.763 231.301C576.717 232.212 578.134 232.761 579.012 232.947C579.898 233.118 580.789 232.999 581.687 232.59C582.599 232.188 583.286 231.491 583.748 230.5C584.421 229.056 584.393 227.767 583.663 226.633C582.954 225.492 581.36 224.344 578.882 223.188L572.488 220.207L568.645 228.449Z" fill="#331832"/>
</g>
</g>
<g filter="url(#filter4_d_33_87)">
<rect x="459" y="173.96" width="55" height="64" rx="10" transform="rotate(-11 459 173.96)" fill="#FEFAFC"/>
<path d="M475.421 185.683L482.231 184.359L484.852 197.841L493.963 196.07C498.257 195.236 501.558 195.636 503.866 197.273C506.189 198.907 507.624 201.127 508.169 203.934C508.616 206.234 508.414 208.303 507.561 210.14C506.708 211.977 505.587 213.333 504.197 214.208C502.82 215.065 500.72 215.768 497.898 216.316L481.977 219.411L475.421 185.683ZM487.687 212.428L494.313 211.14C496.46 210.722 497.929 210.333 498.718 209.973C499.505 209.597 500.149 208.979 500.65 208.117C501.166 207.253 501.32 206.284 501.111 205.21C500.81 203.661 500.03 202.635 498.77 202.132C497.525 201.625 495.561 201.633 492.877 202.155L485.952 203.501L487.687 212.428Z" fill="#331832"/>
</g>
<g filter="url(#filter5_d_33_87)">
<rect x="389" y="198.047" width="54" height="64" rx="10" transform="rotate(-7 389 198.047)" fill="#FEFAFC"/>
<path d="M406.766 210.616L430.657 207.683L434.844 241.786L427.958 242.631L424.479 214.297L414.22 215.557L416.008 230.119C416.521 234.291 416.739 237.224 416.664 238.918C416.586 240.596 416.062 241.967 415.091 243.031C414.133 244.077 412.506 244.741 410.211 245.023C409.405 245.122 407.93 245.224 405.786 245.33L405.132 240.003L406.67 239.838C408.112 239.661 409.058 239.348 409.506 238.899C409.955 238.45 410.086 237.466 409.899 235.946L409.156 230.087L406.766 210.616Z" fill="#331832"/>
</g>
<g filter="url(#filter6_d_33_87)">
<g clip-path="url(#clip1_33_87)">
<rect x="328.889" y="157.466" width="55" height="64" rx="10" transform="rotate(20 328.889 157.466)" fill="#FEFAFC"/>
<path d="M354.071 218.776L346.98 216.195L346.83 207.835L333.924 203.137L328.589 209.501L321.674 206.984L346.001 179.274L352.895 181.783L354.071 218.776ZM346.718 201.633L346.629 188.033L337.908 198.427L346.718 201.633Z" fill="#331832"/>
</g>
</g>
<g filter="url(#filter7_d_33_87)">
<rect x="163" y="157.424" width="50" height="64" rx="10" transform="rotate(-8 163 157.424)" fill="#FEFAFC"/>
<path d="M191.164 202.948L187.191 174.679L177.095 176.098L176.286 170.342L203.325 166.542L204.134 172.298L194.061 173.713L198.034 201.982L191.164 202.948Z" fill="#331832"/>
</g>
<g filter="url(#filter8_d_33_87)">
<rect x="230" y="202.477" width="58" height="64" rx="10" transform="rotate(-15 230 202.477)" fill="#FEFAFC"/>
<path d="M250.274 230.206C249.368 226.825 249.113 223.853 249.51 221.288C249.811 219.395 250.431 217.603 251.369 215.912C252.322 214.217 253.489 212.837 254.87 211.771C256.703 210.342 258.97 209.265 261.672 208.541C266.562 207.231 270.877 207.7 274.618 209.95C278.374 212.195 280.976 216.019 282.424 221.422C283.859 226.78 283.527 231.366 281.427 235.18C279.323 238.979 275.834 241.531 270.959 242.838C266.024 244.16 261.697 243.71 257.979 241.487C254.258 239.249 251.689 235.489 250.274 230.206ZM257.118 228.13C258.125 231.888 259.757 234.508 262.014 235.99C264.268 237.456 266.73 237.832 269.401 237.116C272.073 236.4 274.004 234.855 275.196 232.482C276.399 230.089 276.485 226.968 275.454 223.12C274.435 219.316 272.837 216.703 270.66 215.281C268.498 213.854 266.037 213.511 263.275 214.251C260.513 214.991 258.541 216.538 257.361 218.893C256.176 221.232 256.095 224.311 257.118 228.13Z" fill="#331832"/>
</g>
<g filter="url(#filter9_d_33_87)">
<rect x="96" y="198.49" width="58" height="64" rx="10" transform="rotate(-2 96 198.49)" fill="#FEFAFC"/>
<path d="M109.517 230.069C109.395 226.571 109.815 223.617 110.779 221.207C111.498 219.431 112.505 217.824 113.8 216.387C115.11 214.95 116.557 213.868 118.142 213.14C120.25 212.16 122.701 211.621 125.496 211.523C130.556 211.347 134.655 212.775 137.794 215.808C140.949 218.84 142.624 223.151 142.819 228.742C143.012 234.285 141.657 238.679 138.753 241.923C135.848 245.151 131.874 246.853 126.83 247.03C121.724 247.208 117.61 245.796 114.487 242.794C111.364 239.776 109.708 235.534 109.517 230.069ZM116.653 229.585C116.788 233.473 117.789 236.393 119.656 238.345C121.521 240.281 123.836 241.201 126.6 241.104C129.364 241.008 131.593 239.937 133.289 237.892C134.999 235.831 135.785 232.81 135.646 228.828C135.508 224.893 134.539 221.987 132.738 220.112C130.953 218.235 128.631 217.347 125.774 217.447C122.916 217.547 120.647 218.611 118.967 220.639C117.286 222.652 116.515 225.634 116.653 229.585Z" fill="#331832"/>
</g>
<g filter="url(#filter10_d_33_87)">
<rect x="638.578" y="165.466" width="58" height="64" rx="10" transform="rotate(5 638.578 165.466)" fill="#FEFAFC"/>
<path d="M648.146 198.456C648.451 194.97 649.228 192.089 650.478 189.814C651.409 188.139 652.604 186.667 654.064 185.399C655.539 184.132 657.108 183.234 658.77 182.705C660.981 181.989 663.48 181.753 666.266 181.997C671.31 182.438 675.204 184.355 677.95 187.748C680.712 191.142 681.849 195.625 681.361 201.198C680.878 206.724 678.997 210.919 675.719 213.785C672.443 216.635 668.291 217.841 663.263 217.401C658.173 216.955 654.262 215.053 651.528 211.692C648.797 208.316 647.669 203.904 648.146 198.456ZM655.287 198.846C654.948 202.722 655.586 205.742 657.2 207.907C658.816 210.056 661.001 211.251 663.756 211.492C666.512 211.733 668.855 210.942 670.787 209.119C672.736 207.282 673.884 204.378 674.231 200.409C674.574 196.487 673.966 193.485 672.407 191.404C670.864 189.324 668.668 188.159 665.82 187.91C662.971 187.661 660.589 188.44 658.674 190.249C656.761 192.042 655.632 194.908 655.287 198.846Z" fill="#331832"/>
</g>
<g filter="url(#filter11_d_33_87)">
<rect x="13.5781" y="210.466" width="61" height="64" rx="10" transform="rotate(5 13.5781 210.466)" fill="#FEFAFC"/>
<path d="M43.4264 258.241L43.0771 262.234L36.3061 261.641L36.6554 257.649C31.2096 256.968 27.4671 255.284 25.428 252.596C23.4058 249.894 22.5588 246.668 22.887 242.916C23.2329 238.963 24.6853 235.898 27.244 233.722C29.8041 231.53 33.7236 230.564 39.0025 230.822L39.2987 227.436L46.0697 228.029L45.7735 231.414C51.1882 232.092 54.9157 233.767 56.9562 236.439C59.0123 239.113 59.8741 242.349 59.5419 246.147C59.2123 249.913 57.8101 252.943 55.3352 255.236C52.8616 257.514 48.8921 258.515 43.4264 258.241ZM43.931 252.474C45.7366 252.632 47.3119 252.464 48.6569 251.97C50.0176 251.477 51.0152 250.741 51.6499 249.762C52.2846 248.782 52.6884 247.304 52.8613 245.327C53.2944 240.377 50.7636 237.662 45.2689 237.181L43.931 252.474ZM37.16 251.882L38.4979 236.589C35.5872 236.334 33.4286 236.804 32.0223 237.998C30.6173 239.177 29.7998 241.082 29.5696 243.713C29.1352 248.678 31.6653 251.401 37.16 251.882Z" fill="#331832"/>
</g>
<g filter="url(#filter12_d_33_87)">
<rect x="712" y="214.695" width="60" height="64" rx="10" transform="rotate(-5 712 214.695)" fill="#FEFAFC"/>
<path d="M729.626 262.34L726.631 228.112L736.974 227.207L745.228 250.012L749.326 226.126L759.692 225.219L762.687 259.448L756.266 260.01L753.909 233.066L749.472 260.604L742.817 261.186L733.689 234.835L736.046 261.779L729.626 262.34Z" fill="#331832"/>
</g>
<defs>
<filter id="filter0_d_33_87" x="425.507" y="-1" width="84.3345" height="91.8159" filterUnits="userSpaceOnUse" color-interpolation-filters="sRGB">
<feFlood flood-opacity="0" result="BackgroundImageFix"/>
<feColorMatrix in="SourceAlpha" type="matrix" values="0 0 0 0 0 0 0 0 0 0 0 0 0 0 0 0 0 0 127 0" result="hardAlpha"/>
<feOffset dx="2" dy="4"/>
<feGaussianBlur stdDeviation="5"/>
<feComposite in2="hardAlpha" operator="out"/>
<feColorMatrix type="matrix" values="0 0 0 0 0 0 0 0 0 0 0 0 0 0 0 0 0 0 0.25 0"/>
<feBlend mode="normal" in2="BackgroundImageFix" result="effect1_dropShadow_33_87"/>
<feBlend mode="normal" in="SourceGraphic" in2="effect1_dropShadow_33_87" result="shape"/>
</filter>
<filter id="filter1_d_33_87" x="365.209" y="13.5342" width="64.5972" height="88.9318" filterUnits="userSpaceOnUse" color-interpolation-filters="sRGB">
<feFlood flood-opacity="0" result="BackgroundImageFix"/>
<feColorMatrix in="SourceAlpha" type="matrix" values="0 0 0 0 0 0 0 0 0 0 0 0 0 0 0 0 0 0 127 0" result="hardAlpha"/>
<feOffset dx="2" dy="4"/>
<feGaussianBlur stdDeviation="5"/>
<feComposite in2="hardAlpha" operator="out"/>
<feColorMatrix type="matrix" values="0 0 0 0 0 0 0 0 0 0 0 0 0 0 0 0 0 0 0.25 0"/>
<feBlend mode="normal" in2="BackgroundImageFix" result="effect1_dropShadow_33_87"/>
<feBlend mode="normal" in="SourceGraphic" in2="effect1_dropShadow_33_87" result="shape"/>
</filter>
<filter id="filter2_d_33_87" x="279.507" y="2" width="85.3496" height="88.9858" filterUnits="userSpaceOnUse" color-interpolation-filters="sRGB">
<feFlood flood-opacity="0" result="BackgroundImageFix"/>
<feColorMatrix in="SourceAlpha" type="matrix" values="0 0 0 0 0 0 0 0 0 0 0 0 0 0 0 0 0 0 127 0" result="hardAlpha"/>
<feOffset dx="2" dy="4"/>
<feGaussianBlur stdDeviation="5"/>
<feComposite in2="hardAlpha" operator="out"/>
<feColorMatrix type="matrix" values="0 0 0 0 0 0 0 0 0 0 0 0 0 0 0 0 0 0 0.25 0"/>
<feBlend mode="normal" in2="BackgroundImageFix" result="effect1_dropShadow_33_87"/>
<feBlend mode="normal" in="SourceGraphic" in2="effect1_dropShadow_33_87" result="shape"/>
</filter>
<filter id="filter3_d_33_87" x="533" y="174.466" width="96.8945" height="101.248" filterUnits="userSpaceOnUse" color-interpolation-filters="sRGB">
<feFlood flood-opacity="0" result="BackgroundImageFix"/>
<feColorMatrix in="SourceAlpha" type="matrix" values="0 0 0 0 0 0 0 0 0 0 0 0 0 0 0 0 0 0 127 0" result="hardAlpha"/>
<feOffset dx="2" dy="4"/>
<feGaussianBlur stdDeviation="5"/>
<feComposite in2="hardAlpha" operator="out"/>
<feColorMatrix type="matrix" values="0 0 0 0 0 0 0 0 0 0 0 0 0 0 0 0 0 0 0.25 0"/>
<feBlend mode="normal" in2="BackgroundImageFix" result="effect1_dropShadow_33_87"/>
<feBlend mode="normal" in="SourceGraphic" in2="effect1_dropShadow_33_87" result="shape"/>
</filter>
<filter id="filter4_d_33_87" x="451" y="157.466" width="86.2012" height="93.3186" filterUnits="userSpaceOnUse" color-interpolation-filters="sRGB">
<feFlood flood-opacity="0" result="BackgroundImageFix"/>
<feColorMatrix in="SourceAlpha" type="matrix" values="0 0 0 0 0 0 0 0 0 0 0 0 0 0 0 0 0 0 127 0" result="hardAlpha"/>
<feOffset dx="2" dy="4"/>
<feGaussianBlur stdDeviation="5"/>
<feComposite in2="hardAlpha" operator="out"/>
<feColorMatrix type="matrix" values="0 0 0 0 0 0 0 0 0 0 0 0 0 0 0 0 0 0 0.25 0"/>
<feBlend mode="normal" in2="BackgroundImageFix" result="effect1_dropShadow_33_87"/>
<feBlend mode="normal" in="SourceGraphic" in2="effect1_dropShadow_33_87" result="shape"/>
</filter>
<filter id="filter5_d_33_87" x="381" y="185.466" width="81.397" height="90.1039" filterUnits="userSpaceOnUse" color-interpolation-filters="sRGB">
<feFlood flood-opacity="0" result="BackgroundImageFix"/>
<feColorMatrix in="SourceAlpha" type="matrix" values="0 0 0 0 0 0 0 0 0 0 0 0 0 0 0 0 0 0 127 0" result="hardAlpha"/>
<feOffset dx="2" dy="4"/>
<feGaussianBlur stdDeviation="5"/>
<feComposite in2="hardAlpha" operator="out"/>
<feColorMatrix type="matrix" values="0 0 0 0 0 0 0 0 0 0 0 0 0 0 0 0 0 0 0.25 0"/>
<feBlend mode="normal" in2="BackgroundImageFix" result="effect1_dropShadow_33_87"/>
<feBlend mode="normal" in="SourceGraphic" in2="effect1_dropShadow_33_87" result="shape"/>
</filter>
<filter id="filter6_d_33_87" x="299" y="151.466" width="93.5723" height="98.9514" filterUnits="userSpaceOnUse" color-interpolation-filters="sRGB">
<feFlood flood-opacity="0" result="BackgroundImageFix"/>
<feColorMatrix in="SourceAlpha" type="matrix" values="0 0 0 0 0 0 0 0 0 0 0 0 0 0 0 0 0 0 127 0" result="hardAlpha"/>
<feOffset dx="2" dy="4"/>
<feGaussianBlur stdDeviation="5"/>
<feComposite in2="hardAlpha" operator="out"/>
<feColorMatrix type="matrix" values="0 0 0 0 0 0 0 0 0 0 0 0 0 0 0 0 0 0 0.25 0"/>
<feBlend mode="normal" in2="BackgroundImageFix" result="effect1_dropShadow_33_87"/>
<feBlend mode="normal" in="SourceGraphic" in2="effect1_dropShadow_33_87" result="shape"/>
</filter>
<filter id="filter7_d_33_87" x="155" y="144.466" width="78.4204" height="90.3358" filterUnits="userSpaceOnUse" color-interpolation-filters="sRGB">
<feFlood flood-opacity="0" result="BackgroundImageFix"/>
<feColorMatrix in="SourceAlpha" type="matrix" values="0 0 0 0 0 0 0 0 0 0 0 0 0 0 0 0 0 0 127 0" result="hardAlpha"/>
<feOffset dx="2" dy="4"/>
<feGaussianBlur stdDeviation="5"/>
<feComposite in2="hardAlpha" operator="out"/>
<feColorMatrix type="matrix" values="0 0 0 0 0 0 0 0 0 0 0 0 0 0 0 0 0 0 0.25 0"/>
<feBlend mode="normal" in2="BackgroundImageFix" result="effect1_dropShadow_33_87"/>
<feBlend mode="normal" in="SourceGraphic" in2="effect1_dropShadow_33_87" result="shape"/>
</filter>
<filter id="filter8_d_33_87" x="222" y="181.466" width="92.5879" height="96.8307" filterUnits="userSpaceOnUse" color-interpolation-filters="sRGB">
<feFlood flood-opacity="0" result="BackgroundImageFix"/>
<feColorMatrix in="SourceAlpha" type="matrix" values="0 0 0 0 0 0 0 0 0 0 0 0 0 0 0 0 0 0 127 0" result="hardAlpha"/>
<feOffset dx="2" dy="4"/>
<feGaussianBlur stdDeviation="5"/>
<feComposite in2="hardAlpha" operator="out"/>
<feColorMatrix type="matrix" values="0 0 0 0 0 0 0 0 0 0 0 0 0 0 0 0 0 0 0.25 0"/>
<feBlend mode="normal" in2="BackgroundImageFix" result="effect1_dropShadow_33_87"/>
<feBlend mode="normal" in="SourceGraphic" in2="effect1_dropShadow_33_87" result="shape"/>
</filter>
<filter id="filter9_d_33_87" x="88" y="190.466" width="80.1982" height="85.9852" filterUnits="userSpaceOnUse" color-interpolation-filters="sRGB">
<feFlood flood-opacity="0" result="BackgroundImageFix"/>
<feColorMatrix in="SourceAlpha" type="matrix" values="0 0 0 0 0 0 0 0 0 0 0 0 0 0 0 0 0 0 127 0" result="hardAlpha"/>
<feOffset dx="2" dy="4"/>
<feGaussianBlur stdDeviation="5"/>
<feComposite in2="hardAlpha" operator="out"/>
<feColorMatrix type="matrix" values="0 0 0 0 0 0 0 0 0 0 0 0 0 0 0 0 0 0 0.25 0"/>
<feBlend mode="normal" in2="BackgroundImageFix" result="effect1_dropShadow_33_87"/>
<feBlend mode="normal" in="SourceGraphic" in2="effect1_dropShadow_33_87" result="shape"/>
</filter>
<filter id="filter10_d_33_87" x="625" y="159.466" width="83.3574" height="88.8115" filterUnits="userSpaceOnUse" color-interpolation-filters="sRGB">
<feFlood flood-opacity="0" result="BackgroundImageFix"/>
<feColorMatrix in="SourceAlpha" type="matrix" values="0 0 0 0 0 0 0 0 0 0 0 0 0 0 0 0 0 0 127 0" result="hardAlpha"/>
<feOffset dx="2" dy="4"/>
<feGaussianBlur stdDeviation="5"/>
<feComposite in2="hardAlpha" operator="out"/>
<feColorMatrix type="matrix" values="0 0 0 0 0 0 0 0 0 0 0 0 0 0 0 0 0 0 0.25 0"/>
<feBlend mode="normal" in2="BackgroundImageFix" result="effect1_dropShadow_33_87"/>
<feBlend mode="normal" in="SourceGraphic" in2="effect1_dropShadow_33_87" result="shape"/>
</filter>
<filter id="filter11_d_33_87" x="0" y="204.466" width="86.3462" height="89.073" filterUnits="userSpaceOnUse" color-interpolation-filters="sRGB">
<feFlood flood-opacity="0" result="BackgroundImageFix"/>
<feColorMatrix in="SourceAlpha" type="matrix" values="0 0 0 0 0 0 0 0 0 0 0 0 0 0 0 0 0 0 127 0" result="hardAlpha"/>
<feOffset dx="2" dy="4"/>
<feGaussianBlur stdDeviation="5"/>
<feComposite in2="hardAlpha" operator="out"/>
<feColorMatrix type="matrix" values="0 0 0 0 0 0 0 0 0 0 0 0 0 0 0 0 0 0 0.25 0"/>
<feBlend mode="normal" in2="BackgroundImageFix" result="effect1_dropShadow_33_87"/>
<feBlend mode="normal" in="SourceGraphic" in2="effect1_dropShadow_33_87" result="shape"/>
</filter>
<filter id="filter12_d_33_87" x="704" y="203.466" width="85.3496" height="88.9858" filterUnits="userSpaceOnUse" color-interpolation-filters="sRGB">
<feFlood flood-opacity="0" result="BackgroundImageFix"/>
<feColorMatrix in="SourceAlpha" type="matrix" values="0 0 0 0 0 0 0 0 0 0 0 0 0 0 0 0 0 0 127 0" result="hardAlpha"/>
<feOffset dx="2" dy="4"/>
<feGaussianBlur stdDeviation="5"/>
<feComposite in2="hardAlpha" operator="out"/>
<feColorMatrix type="matrix" values="0 0 0 0 0 0 0 0 0 0 0 0 0 0 0 0 0 0 0.25 0"/>
<feBlend mode="normal" in2="BackgroundImageFix" result="effect1_dropShadow_33_87"/>
<feBlend mode="normal" in="SourceGraphic" in2="effect1_dropShadow_33_87" result="shape"/>
</filter>
<clipPath id="clip0_33_87">
<rect x="568.047" y="180.466" width="55" height="64" rx="10" transform="rotate(25 568.047 180.466)" fill="white"/>
</clipPath>
<clipPath id="clip1_33_87">
<rect x="328.889" y="157.466" width="55" height="64" rx="10" transform="rotate(20 328.889 157.466)" fill="white"/>
</clipPath>
</defs>
</svg>
